<?xml version="1.0" encoding="utf-8"?>
<!-- Generator: Adobe Illustrator 20.0.0, SVG Export Plug-In . SVG Version: 6.00 Build 0)  -->
<svg version="1.1" id="Layer_1" xmlns="http://www.w3.org/2000/svg" xmlns:xlink="http://www.w3.org/1999/xlink" x="0px" y="0px"
	 viewBox="0 0 500 200" style="enable-background:new 0 0 500 200;" xml:space="preserve">
<style type="text/css">
	.st0{fill:#BC2437;}
	.st1{fill:#353535;}
</style>
<g id="Darker">
	<path class="st0" d="M391.1,40.4c1.2-2.9,4.1-6,8.6-9.2c3.9-2.8,6.4-4.8,7.6-6c1.8-1.9,2.6-4,2.6-6.2c0-1.8-0.5-3.4-1.5-4.6
		s-2.5-1.8-4.3-1.8c-2.6,0-4.3,1-5.3,2.9c-0.5,1.1-0.9,2.9-1,5.3h-8.2c0.1-3.7,0.8-6.7,2-8.9c2.3-4.3,6.3-6.5,12-6.5
		c4.6,0,8.2,1.3,10.9,3.8s4,5.9,4,10.1c0,3.2-1,6.1-2.9,8.6c-1.3,1.7-3.3,3.5-6.2,5.5l-3.4,2.4c-2.1,1.5-3.6,2.6-4.4,3.3
		s-1.4,1.5-2,2.4h18.8V49h-29.5C389.2,45.8,389.9,43,391.1,40.4z"/>
</g>
<g>
	<path class="st0" d="M110.8,160.2c0.5,0.3,0.9,0.7,1.2,1.2v-5.1h2.8v14.3h-2.7v-1.5c-0.4,0.6-0.8,1.1-1.4,1.4
		c-0.5,0.3-1.1,0.4-1.9,0.4c-1.2,0-2.3-0.5-3.1-1.5c-0.8-1-1.3-2.3-1.3-3.9c0-1.8,0.4-3.2,1.3-4.3c0.8-1,1.9-1.6,3.3-1.6
		C109.7,159.8,110.3,159.9,110.8,160.2z M111.4,167.8c0.4-0.6,0.6-1.3,0.6-2.3c0-1.3-0.3-2.2-1-2.8c-0.4-0.3-0.9-0.5-1.4-0.5
		c-0.8,0-1.4,0.3-1.8,0.9c-0.4,0.6-0.6,1.4-0.6,2.3c0,1,0.2,1.8,0.6,2.4c0.4,0.6,1,0.9,1.8,0.9C110.4,168.6,111,168.3,111.4,167.8z"
		/>
	<path class="st0" d="M124.2,160.2c0.7,0.3,1.4,0.9,1.8,1.6c0.4,0.6,0.7,1.4,0.8,2.2c0.1,0.5,0.1,1.2,0.1,2.1h-7.7
		c0,1.1,0.4,1.8,1.1,2.2c0.4,0.3,0.9,0.4,1.5,0.4s1.1-0.2,1.5-0.5c0.2-0.2,0.4-0.4,0.6-0.7h2.8c-0.1,0.6-0.4,1.3-1,1.9
		c-1,1-2.3,1.5-4,1.5c-1.4,0-2.7-0.4-3.7-1.3s-1.6-2.3-1.6-4.3c0-1.8,0.5-3.3,1.5-4.2s2.2-1.5,3.8-1.5
		C122.7,159.7,123.5,159.9,124.2,160.2z M120.1,162.6c-0.4,0.4-0.6,1-0.7,1.6h4.8c-0.1-0.7-0.3-1.3-0.7-1.7c-0.4-0.4-1-0.6-1.6-0.6
		C121,162,120.5,162.2,120.1,162.6z"/>
	<path class="st0" d="M135,160h3l-3.8,10.6h-2.9l-3.8-10.6h3.1l2.2,7.8L135,160z"/>
	<path class="st0" d="M146.4,160.2c0.7,0.3,1.4,0.9,1.8,1.6c0.4,0.6,0.7,1.4,0.8,2.2c0.1,0.5,0.1,1.2,0.1,2.1h-7.7
		c0,1.1,0.4,1.8,1.1,2.2c0.4,0.3,0.9,0.4,1.5,0.4s1.1-0.2,1.5-0.5c0.2-0.2,0.4-0.4,0.6-0.7h2.8c-0.1,0.6-0.4,1.3-1,1.9
		c-1,1-2.3,1.5-4,1.5c-1.4,0-2.7-0.4-3.7-1.3s-1.6-2.3-1.6-4.3c0-1.8,0.5-3.3,1.5-4.2s2.2-1.5,3.8-1.5
		C144.9,159.7,145.7,159.9,146.4,160.2z M142.3,162.6c-0.4,0.4-0.6,1-0.7,1.6h4.8c-0.1-0.7-0.3-1.3-0.7-1.7s-1-0.6-1.6-0.6
		C143.2,162,142.7,162.2,142.3,162.6z"/>
	<path class="st0" d="M153.4,170.6h-2.8v-14.4h2.8V170.6z"/>
	<path class="st0" d="M165,169.3c-0.9,1.1-2.3,1.7-4.1,1.7s-3.2-0.6-4.1-1.7c-0.9-1.1-1.3-2.4-1.3-4c0-1.5,0.4-2.9,1.3-4
		c0.9-1.1,2.3-1.7,4.1-1.7s3.2,0.6,4.1,1.7c0.9,1.1,1.3,2.4,1.3,4C166.3,166.9,165.9,168.2,165,169.3z M162.8,167.8
		c0.4-0.6,0.7-1.4,0.7-2.5s-0.2-1.9-0.7-2.5c-0.4-0.6-1.1-0.9-1.9-0.9c-0.8,0-1.4,0.3-1.9,0.9c-0.4,0.6-0.7,1.4-0.7,2.5
		s0.2,1.9,0.7,2.5s1.1,0.9,1.9,0.9S162.3,168.4,162.8,167.8z"/>
	<path class="st0" d="M177.3,161.2c0.9,0.9,1.3,2.3,1.3,4c0,1.9-0.4,3.3-1.3,4.3c-0.8,1-1.9,1.5-3.3,1.5c-0.9,0-1.6-0.2-2.1-0.6
		c-0.3-0.2-0.6-0.6-0.9-1v5.5h-2.7V160h2.7v1.6c0.3-0.5,0.6-0.8,1-1.1c0.6-0.5,1.4-0.7,2.2-0.7C175.3,159.8,176.4,160.3,177.3,161.2
		z M175.1,163.2c-0.4-0.6-1-0.9-1.8-0.9c-1,0-1.7,0.5-2.1,1.4c-0.2,0.5-0.3,1.1-0.3,1.9c0,1.2,0.3,2.1,1,2.6
		c0.4,0.3,0.9,0.4,1.4,0.4c0.8,0,1.4-0.3,1.8-0.9c0.4-0.6,0.6-1.4,0.6-2.4C175.7,164.5,175.5,163.8,175.1,163.2z"/>
	<path class="st0" d="M187.4,160.2c0.7,0.3,1.4,0.9,1.8,1.6c0.4,0.6,0.7,1.4,0.8,2.2c0.1,0.5,0.1,1.2,0.1,2.1h-7.7
		c0,1.1,0.4,1.8,1.1,2.2c0.4,0.3,0.9,0.4,1.5,0.4s1.1-0.2,1.5-0.5c0.2-0.2,0.4-0.4,0.6-0.7h2.8c-0.1,0.6-0.4,1.3-1,1.9
		c-1,1-2.3,1.5-4,1.5c-1.4,0-2.7-0.4-3.7-1.3s-1.6-2.3-1.6-4.3c0-1.8,0.5-3.3,1.5-4.2s2.2-1.5,3.8-1.5
		C185.9,159.7,186.7,159.9,187.4,160.2z M183.3,162.6c-0.4,0.4-0.6,1-0.7,1.6h4.8c-0.1-0.7-0.3-1.3-0.7-1.7s-1-0.6-1.6-0.6
		C184.2,162,183.7,162.2,183.3,162.6z"/>
	<path class="st0" d="M197.2,160.2c0.5,0.3,0.9,0.7,1.2,1.2v-5.1h2.8v14.3h-2.7v-1.5c-0.4,0.6-0.8,1.1-1.4,1.4
		c-0.5,0.3-1.1,0.4-1.9,0.4c-1.2,0-2.3-0.5-3.1-1.5s-1.3-2.3-1.3-3.9c0-1.8,0.4-3.2,1.3-4.3c0.8-1,1.9-1.6,3.3-1.6
		C196.2,159.8,196.7,159.9,197.2,160.2z M197.9,167.8c0.4-0.6,0.6-1.3,0.6-2.3c0-1.3-0.3-2.2-1-2.8c-0.4-0.3-0.9-0.5-1.4-0.5
		c-0.8,0-1.4,0.3-1.8,0.9c-0.4,0.6-0.6,1.4-0.6,2.3c0,1,0.2,1.8,0.6,2.4c0.4,0.6,1,0.9,1.8,0.9C196.9,168.6,197.5,168.3,197.9,167.8
		z"/>
	<path class="st0" d="M218.2,169.3c-0.9,1.1-2.3,1.7-4.1,1.7s-3.2-0.6-4.1-1.7c-0.9-1.1-1.3-2.4-1.3-4c0-1.5,0.4-2.9,1.3-4
		c0.9-1.1,2.3-1.7,4.1-1.7s3.2,0.6,4.1,1.7c0.9,1.1,1.3,2.4,1.3,4C219.5,166.9,219.1,168.2,218.2,169.3z M216,167.8
		c0.4-0.6,0.7-1.4,0.7-2.5s-0.2-1.9-0.7-2.5c-0.4-0.6-1.1-0.9-1.9-0.9c-0.8,0-1.4,0.3-1.9,0.9c-0.4,0.6-0.7,1.4-0.7,2.5
		s0.2,1.9,0.7,2.5s1.1,0.9,1.9,0.9S215.5,168.4,216,167.8z"/>
	<path class="st0" d="M230.1,160.6c0.7,0.6,1,1.5,1,2.9v7.2h-2.8v-6.5c0-0.6-0.1-1-0.2-1.3c-0.3-0.5-0.8-0.8-1.5-0.8
		c-0.9,0-1.6,0.4-1.9,1.2c-0.2,0.4-0.3,1-0.3,1.6v5.7h-2.8V160h2.7v1.5c0.4-0.5,0.7-0.9,1-1.2c0.6-0.4,1.3-0.6,2.2-0.6
		C228.5,159.8,229.4,160.1,230.1,160.6z"/>
	<path class="st0" d="M240.6,160.2c0.7,0.3,1.4,0.9,1.8,1.6c0.4,0.6,0.7,1.4,0.8,2.2c0.1,0.5,0.1,1.2,0.1,2.1h-7.7
		c0,1.1,0.4,1.8,1.1,2.2c0.4,0.3,0.9,0.4,1.5,0.4s1.1-0.2,1.5-0.5c0.2-0.2,0.4-0.4,0.6-0.7h2.8c-0.1,0.6-0.4,1.3-1,1.9
		c-1,1-2.3,1.5-4,1.5c-1.4,0-2.7-0.4-3.7-1.3s-1.6-2.3-1.6-4.3c0-1.8,0.5-3.3,1.5-4.2s2.2-1.5,3.8-1.5
		C239.1,159.7,239.9,159.9,240.6,160.2z M236.5,162.6c-0.4,0.4-0.6,1-0.7,1.6h4.8c-0.1-0.7-0.3-1.3-0.7-1.7s-1-0.6-1.6-0.6
		C237.4,162,236.9,162.2,236.5,162.6z"/>
	<path class="st0" d="M259.3,161.2c0.9,0.9,1.3,2.3,1.3,4c0,1.9-0.4,3.3-1.3,4.3c-0.8,1-1.9,1.5-3.3,1.5c-0.8,0-1.6-0.2-2.1-0.6
		c-0.3-0.2-0.6-0.6-0.9-1v5.5h-2.7V160h2.7v1.6c0.3-0.5,0.6-0.8,1-1.1c0.6-0.5,1.4-0.7,2.2-0.7C257.4,159.8,258.4,160.3,259.3,161.2
		z M257.2,163.2c-0.4-0.6-1-0.9-1.8-0.9c-1,0-1.7,0.5-2.1,1.4c-0.2,0.5-0.3,1.1-0.3,1.9c0,1.2,0.3,2.1,1,2.6
		c0.4,0.3,0.9,0.4,1.4,0.4c0.8,0,1.4-0.3,1.8-0.9c0.4-0.6,0.6-1.4,0.6-2.4C257.7,164.5,257.5,163.8,257.2,163.2z"/>
	<path class="st0" d="M265.4,158.8h-2.8v-2.6h2.8V158.8z M262.6,160h2.8v10.6h-2.8V160z"/>
	<path class="st0" d="M267,170.6l3.6-5.4l-3.5-5.2h3.4l1.8,3.1l1.7-3.1h3.3l-3.5,5.2l3.6,5.4h-3.5l-1.8-3.2l-1.8,3.2H267z"/>
	<path class="st0" d="M286.1,160.2c0.7,0.3,1.4,0.9,1.8,1.6c0.4,0.6,0.7,1.4,0.8,2.2c0.1,0.5,0.1,1.2,0.1,2.1h-7.7
		c0,1.1,0.4,1.8,1.1,2.2c0.4,0.3,0.9,0.4,1.5,0.4s1.1-0.2,1.5-0.5c0.2-0.2,0.4-0.4,0.6-0.7h2.8c-0.1,0.6-0.4,1.3-1,1.9
		c-1,1-2.3,1.5-4,1.5c-1.4,0-2.7-0.4-3.7-1.3s-1.6-2.3-1.6-4.3c0-1.8,0.5-3.3,1.5-4.2c1-1,2.2-1.5,3.8-1.5
		C284.5,159.7,285.4,159.9,286.1,160.2z M281.9,162.6c-0.4,0.4-0.6,1-0.7,1.6h4.8c-0.1-0.7-0.3-1.3-0.7-1.7s-1-0.6-1.6-0.6
		C282.9,162,282.3,162.2,281.9,162.6z"/>
	<path class="st0" d="M293.1,170.6h-2.8v-14.4h2.8V170.6z"/>
	<path class="st0" d="M305.6,164.2c0.5-0.1,0.9-0.1,1.1-0.2c0.4-0.2,0.6-0.4,0.6-0.8c0-0.4-0.2-0.7-0.5-0.9s-0.8-0.2-1.3-0.2
		c-0.7,0-1.1,0.2-1.4,0.5c-0.2,0.2-0.3,0.6-0.4,1H301c0.1-0.9,0.3-1.7,0.8-2.3c0.7-0.9,2-1.4,3.8-1.4c1.2,0,2.2,0.2,3.1,0.7
		s1.4,1.3,1.4,2.6v4.9c0,0.3,0,0.7,0,1.2c0,0.4,0.1,0.6,0.2,0.7s0.2,0.2,0.4,0.3v0.4h-3c-0.1-0.2-0.1-0.4-0.2-0.6
		c0-0.2-0.1-0.4-0.1-0.6c-0.4,0.4-0.8,0.8-1.3,1.1c-0.6,0.3-1.3,0.5-2,0.5c-1,0-1.8-0.3-2.4-0.8s-0.9-1.3-0.9-2.3
		c0-1.3,0.5-2.3,1.5-2.8c0.6-0.3,1.4-0.5,2.5-0.7L305.6,164.2z M307.3,165.5c-0.2,0.1-0.4,0.2-0.5,0.3c-0.2,0.1-0.4,0.1-0.7,0.2
		l-0.6,0.1c-0.6,0.1-1,0.2-1.3,0.4c-0.4,0.3-0.7,0.6-0.7,1.2c0,0.5,0.1,0.8,0.4,1s0.6,0.3,1,0.3c0.6,0,1.2-0.2,1.7-0.5
		c0.5-0.4,0.8-1,0.8-1.9L307.3,165.5L307.3,165.5z"/>
	<path class="st0" d="M311.4,162.1v-2h1.5v-3h2.7v3h1.7v2h-1.7v5.6c0,0.4,0.1,0.7,0.2,0.8s0.4,0.2,1,0.2c0.1,0,0.2,0,0.3,0
		s0.2,0,0.3,0v2.1h-1.3c-1.3,0-2.2-0.2-2.7-0.7c-0.3-0.3-0.5-0.8-0.5-1.5v-6.5L311.4,162.1L311.4,162.1z"/>
	<path class="st0" d="M328.9,164.2c0.5-0.1,0.9-0.1,1.1-0.2c0.4-0.2,0.6-0.4,0.6-0.8c0-0.4-0.2-0.7-0.5-0.9s-0.8-0.2-1.3-0.2
		c-0.7,0-1.1,0.2-1.4,0.5c-0.2,0.2-0.3,0.6-0.4,1h-2.7c0.1-0.9,0.3-1.7,0.8-2.3c0.7-0.9,2-1.4,3.8-1.4c1.2,0,2.2,0.2,3.1,0.7
		s1.4,1.3,1.4,2.6v4.9c0,0.3,0,0.7,0,1.2c0,0.4,0.1,0.6,0.2,0.7s0.2,0.2,0.4,0.3v0.4h-3c-0.1-0.2-0.1-0.4-0.2-0.6
		c0-0.2-0.1-0.4-0.1-0.6c-0.4,0.4-0.8,0.8-1.3,1.1c-0.6,0.3-1.3,0.5-2,0.5c-1,0-1.8-0.3-2.4-0.8s-0.9-1.3-0.9-2.3
		c0-1.3,0.5-2.3,1.5-2.8c0.6-0.3,1.4-0.5,2.5-0.7L328.9,164.2z M330.5,165.5c-0.2,0.1-0.4,0.2-0.5,0.3c-0.2,0.1-0.4,0.1-0.7,0.2
		l-0.6,0.1c-0.6,0.1-1,0.2-1.3,0.4c-0.4,0.3-0.7,0.6-0.7,1.2c0,0.5,0.1,0.8,0.4,1s0.6,0.3,1,0.3c0.6,0,1.2-0.2,1.7-0.5
		c0.5-0.4,0.8-1,0.8-1.9L330.5,165.5L330.5,165.5z"/>
	<path class="st0" d="M340.2,162.1v-2h1.5v-3h2.7v3h1.7v2h-1.7v5.6c0,0.4,0.1,0.7,0.2,0.8s0.4,0.2,1,0.2c0.1,0,0.2,0,0.3,0
		s0.2,0,0.3,0v2.1h-1.3c-1.3,0-2.2-0.2-2.7-0.7c-0.3-0.3-0.5-0.8-0.5-1.5v-6.5L340.2,162.1L340.2,162.1z"/>
	<path class="st0" d="M350.8,158.8H348v-2.6h2.8V158.8z M348,160h2.8v10.6H348V160z"/>
	<path class="st0" d="M366.7,160.1c0.5,0.2,0.9,0.5,1.2,1c0.3,0.4,0.5,0.8,0.6,1.4c0.1,0.4,0.1,0.9,0.1,1.6v6.7h-2.8V164
		c0-0.4-0.1-0.7-0.2-1c-0.2-0.5-0.7-0.7-1.4-0.7c-0.8,0-1.3,0.3-1.6,1c-0.2,0.3-0.2,0.7-0.2,1.2v6.3h-2.8v-6.3
		c0-0.6-0.1-1.1-0.2-1.4c-0.2-0.5-0.7-0.8-1.4-0.8c-0.8,0-1.3,0.3-1.6,0.8c-0.1,0.3-0.2,0.7-0.2,1.3v6.4h-2.8V160h2.7v1.5
		c0.3-0.6,0.7-0.9,1-1.2c0.5-0.4,1.2-0.6,2.1-0.6c0.8,0,1.5,0.2,2,0.5c0.4,0.3,0.7,0.8,0.9,1.3c0.4-0.6,0.8-1.1,1.4-1.4
		c0.6-0.3,1.2-0.4,1.9-0.4C365.8,159.8,366.3,159.9,366.7,160.1z"/>
	<path class="st0" d="M378.1,160.2c0.7,0.3,1.4,0.9,1.8,1.6c0.4,0.6,0.7,1.4,0.8,2.2c0.1,0.5,0.1,1.2,0.1,2.1h-7.7
		c0,1.1,0.4,1.8,1.1,2.2c0.4,0.3,0.9,0.4,1.5,0.4s1.1-0.2,1.5-0.5c0.2-0.2,0.4-0.4,0.6-0.7h2.8c-0.1,0.6-0.4,1.3-1,1.9
		c-1,1-2.3,1.5-4,1.5c-1.4,0-2.7-0.4-3.7-1.3s-1.6-2.3-1.6-4.3c0-1.8,0.5-3.3,1.5-4.2c1-1,2.2-1.5,3.8-1.5
		C376.6,159.7,377.4,159.9,378.1,160.2z M374,162.6c-0.4,0.4-0.6,1-0.7,1.6h4.8c-0.1-0.7-0.3-1.3-0.7-1.7s-1-0.6-1.6-0.6
		C374.9,162,374.4,162.2,374,162.6z"/>
</g>
<g id="Pixel">
	<g>
		<path class="st1" d="M366.5,149V5.4h16.2V149H366.5z"/>
	</g>
	<path class="st1" d="M315.6,149.3c-13.9,0-25.2-4.6-33.9-13.8c-8.7-9.2-13.1-21.3-13.1-36.3S273,72.1,281.8,63
		c8.8-9.1,20.2-13.7,34.3-13.7c14,0,25.3,4.3,33.9,13c8.5,8.6,12.8,19.7,12.8,33.1c0,3.4-0.2,6.6-0.7,9.5H285
		c0.5,9.6,3.5,17.3,9.1,22.8c5.6,5.6,12.7,8.4,21.4,8.4c6.6,0,12.1-1.5,16.7-4.4s7.8-6.8,10-11.6h17.3c-3.1,8.5-8.3,15.5-15.8,21
		C336.2,146.6,326.9,149.3,315.6,149.3z M337.3,71c-5.8-5.6-12.9-8.4-21.4-8.4s-15.6,2.7-21.2,8.2s-8.8,13-9.3,22.5h60.8
		C346,84,343,76.6,337.3,71z"/>
	<path class="st1" d="M285.7,49.3l-32.3,50l32.1,50.2h-18.8L243,112.2l-22.1,37.2h-18.1l32.3-49.6l-32.3-50.5h18.8l23.9,37.4
		l22.3-37.4C267.8,49.3,285.7,49.3,285.7,49.3z"/>
	<path class="st1" d="M183.6,149.4V49.3h16.6v100.2h-16.6V149.4z"/>
	<path class="st1" d="M167.7,63.1c-8.8-9.2-19.9-13.8-33.3-13.8c-8.3,0-15.5,2-21.8,5.9c-6.2,3.9-11,9-14.3,15.3V50.9H82.2v143.7
		h16.2v-66.1c3.3,6.4,8.1,11.6,14.3,15.5c6.2,4,13.5,6,21.8,6c13.3,0,24.3-4.8,33.2-14.3S181,114,181,99.1
		C180.9,84.2,176.5,72.2,167.7,63.1z M156.3,125.6c-6.5,6.8-14.2,10.2-23.3,10.2s-16.8-3.3-23.3-10s-9.7-15.5-9.7-26.5
		c0-10.9,3.2-19.7,9.7-26.4c6.4-6.6,14.2-10,23.3-10s16.8,3.2,23.3,9.6s9.7,15.1,9.7,26.2S162.8,118.8,156.3,125.6z"/>
</g>
</svg>
