<?xml version="1.0" encoding="utf-8"?>
<!-- Generator: Adobe Illustrator 20.0.0, SVG Export Plug-In . SVG Version: 6.00 Build 0)  -->
<svg version="1.1" id="Pixel_2" xmlns="http://www.w3.org/2000/svg" xmlns:xlink="http://www.w3.org/1999/xlink" x="0px" y="0px"
	 viewBox="0 0 500 250" style="enable-background:new 0 0 500 250;" xml:space="preserve">
<style type="text/css">
	.st0{display:none;}
	.st1{display:inline;fill:#F8952A;}
	.st2{fill:#BC2437;}
	.st3{fill:#464647;}
</style>
<g id="Lighter" class="st0">
	<path class="st1" d="M421.4,52.5c1.5-3.5,4.9-7.3,10.4-11.2c4.8-3.4,7.8-5.9,9.2-7.4c2.1-2.3,3.2-4.8,3.2-7.6
		c0-2.2-0.6-4.1-1.8-5.6c-1.2-1.5-3-2.2-5.3-2.2c-3.1,0-5.3,1.2-6.4,3.5c-0.7,1.4-1,3.5-1.2,6.5h-10c0.2-4.5,1-8.1,2.4-10.9
		c2.8-5.3,7.6-7.9,14.7-7.9c5.6,0,10,1.5,13.3,4.6s4.9,7.2,4.9,12.3c0,3.9-1.2,7.4-3.5,10.4c-1.5,2-4,4.3-7.5,6.7l-4.1,3
		c-2.6,1.8-4.4,3.2-5.3,4c-1,0.8-1.8,1.8-2.4,2.9h22.9v9.1H419C419.1,59.1,419.9,55.7,421.4,52.5z"/>
</g>
<g id="Darker">
	<path class="st2" d="M421.4,52.5c1.5-3.5,4.9-7.3,10.4-11.2c4.8-3.4,7.8-5.9,9.2-7.4c2.1-2.3,3.2-4.8,3.2-7.6
		c0-2.2-0.6-4.1-1.8-5.6c-1.2-1.5-3-2.2-5.3-2.2c-3.1,0-5.3,1.2-6.4,3.5c-0.7,1.4-1,3.5-1.2,6.5h-10c0.2-4.5,1-8.1,2.4-10.9
		c2.8-5.3,7.6-7.9,14.7-7.9c5.6,0,10,1.5,13.3,4.6s4.9,7.2,4.9,12.3c0,3.9-1.2,7.4-3.5,10.4c-1.5,2-4,4.3-7.5,6.7l-4.1,3
		c-2.6,1.8-4.4,3.2-5.3,4c-1,0.8-1.8,1.8-2.4,2.9h22.9v9.1H419C419.1,59.1,419.9,55.6,421.4,52.5z"/>
</g>
<g id="Pixel">
	<g>
		<path class="st3" d="M391.4,184.8V9.8h19.7v175H391.4z"/>
	</g>
	<path class="st3" d="M329.4,185.1c-16.9,0-30.6-5.6-41.2-16.8s-15.9-25.9-15.9-44.2s5.4-33,16.1-44.1s24.7-16.6,41.8-16.6
		c17.1,0,30.8,5.3,41.2,15.8c10.4,10.5,15.6,23.9,15.6,40.3c0,4.1-0.3,8-0.9,11.6h-93.9c0.6,11.7,4.3,21,11.1,27.8
		c6.8,6.8,15.5,10.2,26.1,10.2c8,0,14.8-1.8,20.3-5.4c5.5-3.6,9.6-8.3,12.1-14.2h21c-3.7,10.3-10.1,18.8-19.2,25.6
		C354.5,181.8,343.1,185.1,329.4,185.1z M355.8,89.7c-7-6.8-15.7-10.2-26.1-10.2s-19,3.3-25.9,10s-10.7,15.8-11.4,27.4h74.1
		C366.4,105.5,362.8,96.5,355.8,89.7z"/>
	<path class="st3" d="M293,63.3l-39.3,60.9l39.1,61.1h-22.9L241,139.9l-26.9,45.3h-22l39.3-60.5l-39.3-61.6H215l29.1,45.6l27.1-45.6
		H293V63.3z"/>
	<path class="st3" d="M168.6,185.3v-122h20.2v122H168.6z"/>
	<path class="st3" d="M149.3,80c-10.7-11.2-24.3-16.8-40.6-16.8c-10.1,0-18.9,2.4-26.5,7.1c-7.6,4.8-13.4,11-17.4,18.6V65.2H45.1
		v175h19.7v-80.5c4,7.8,9.9,14.1,17.4,18.9c7.6,4.8,16.4,7.3,26.5,7.3c16.2,0,29.6-5.8,40.5-17.4c10.8-11.6,16.2-26.5,16.2-44.6
		C165.4,105.9,160,91.2,149.3,80z M135.4,156.2c-7.9,8.3-17.3,12.4-28.3,12.4s-20.5-4.1-28.3-12.2c-7.9-8.2-11.8-18.9-11.8-32.2
		s3.9-24,11.8-32.1C86.6,84,96,79.9,107.1,79.9c11,0,20.5,3.9,28.3,11.7s11.8,18.4,11.8,31.9S143.3,147.9,135.4,156.2z"/>
</g>
</svg>
